<svg width="554" height="92" viewBox="0 0 554 92" fill="none" xmlns="http://www.w3.org/2000/svg">
<path d="M19 28.0352H43.1211L53.6191 68.8555L67.584 28.0352H89.0195L103.082 68.8555L113.58 28.0352H137.701L121.295 90.1934H89.0195L78.375 58.9922L67.6816 90.1934H35.4062L19 28.0352Z" fill="#00FF1A"/>
<path d="M173.053 66.6582H198.395L185.553 44.1484L173.053 66.6582ZM166.607 28.0352H204.01L237.945 90.1934H211.09L204.938 79.0605H166.168L160.016 90.1934H132.867L166.607 28.0352Z" fill="#00FF1A"/>
<path d="M343.756 90.6816L338.922 81.9414C336.839 83.4062 334.283 84.7409 331.256 85.9453C328.261 87.1172 325.071 88.1426 321.686 89.0215C318.333 89.8678 314.898 90.5352 311.383 91.0234C307.867 91.5117 304.579 91.7559 301.52 91.7559C293.674 91.7559 286.432 91.2188 279.791 90.1445C273.183 89.0378 267.389 87.3613 262.408 85.1152C257.46 82.8691 253.505 80.0534 250.543 76.668C247.581 73.2826 245.888 69.3112 245.465 64.7539C245.465 64.3633 245.449 63.9238 245.416 63.4355C245.383 62.9473 245.367 62.4753 245.367 62.0195C245.302 61.5638 245.27 61.1243 245.27 60.7012C245.27 60.2454 245.27 59.7734 245.27 59.2852C245.27 58.7643 245.286 58.2109 245.318 57.625C245.351 57.0391 245.367 56.4694 245.367 55.916V54.2559C245.66 50.2845 247.174 46.6387 249.908 43.3184C252.675 39.9655 256.549 37.0846 261.529 34.6758C266.51 32.2344 272.564 30.3301 279.693 28.9629C286.855 27.5957 295.009 26.9121 304.156 26.9121C310.862 26.9121 317.145 27.319 323.004 28.1328C328.896 28.9466 334.137 30.265 338.727 32.0879C343.316 33.8783 347.141 36.2057 350.201 39.0703C353.261 41.9023 355.312 45.3691 356.354 49.4707V49.373C356.451 49.5358 356.516 49.7962 356.549 50.1543C356.581 50.5124 356.63 50.8379 356.695 51.1309H322.32C322.158 50.7402 322.044 50.3984 321.979 50.1055C321.913 49.8125 321.816 49.5521 321.686 49.3242V49.4707C320.611 46.8991 318.561 44.8971 315.533 43.4648C312.506 42.0326 308.469 41.3164 303.424 41.3164C296.979 41.3164 291.314 42.3906 286.432 44.5391C281.581 46.6549 278.733 49.4056 277.887 52.791C277.04 56.1764 276.617 58.276 276.617 59.0898C276.617 59.9688 276.633 61.0918 276.666 62.459C276.699 63.8262 277.089 65.1283 277.838 66.3652C278.619 67.5697 279.645 68.8229 280.914 70.125C282.216 71.3945 284.251 72.6966 287.018 74.0312C289.785 75.3659 292.421 76.082 294.928 76.1797C297.434 76.2773 300.283 76.3262 303.473 76.3262C314.573 76.6191 321.441 73.6569 324.078 67.4395H317.633V62.5078H358.16C358.225 64.0052 358.258 65.6654 358.258 67.4883C358.258 69.3112 358.258 70.8411 358.258 72.0781C358.323 73.6406 358.372 75.2845 358.404 77.0098C358.469 78.735 358.518 80.4277 358.551 82.0879C358.583 83.748 358.6 85.3268 358.6 86.8242C358.6 88.3216 358.6 89.6074 358.6 90.6816H343.756Z" fill="#00FF1A"/>
<path d="M365.973 28.0352H403.229L425.445 60.5059L447.76 28.0352H484.332V90.1934H461.09V50.9355L435.943 90.1934H414.508L389.508 50.9355V90.1934H365.973V28.0352Z" fill="#00FF1A"/>
<path d="M491.656 28.0352H520.66V90.1934H491.656V28.0352Z" fill="#00FF1A"/>
<path d="M527.984 17H553.082L551.861 73.25H530.084L527.984 17ZM540.973 80.4277C539.117 80.4277 537.327 80.6881 535.602 81.209C533.876 81.6973 532.525 82.4134 531.549 83.3574C530.572 84.2689 530.084 85.2292 530.084 86.2383C530.084 87.2474 530.556 88.2077 531.5 89.1191C532.477 90.0306 533.827 90.7467 535.553 91.2676C537.278 91.7559 539.085 92 540.973 92C542.861 92 544.667 91.7559 546.393 91.2676C548.118 90.7467 549.452 90.0306 550.396 89.1191C551.373 88.2077 551.861 87.2474 551.861 86.2383C551.861 85.2292 551.357 84.2689 550.348 83.3574C549.371 82.4134 548.02 81.6973 546.295 81.209C544.57 80.6881 542.796 80.4277 540.973 80.4277Z" fill="#00FF1A"/>
<path d="M15 24.0352H39.1211L49.6191 64.8555L63.584 24.0352H85.0195L99.082 64.8555L109.58 24.0352H133.701L117.295 86.1934H85.0195L74.375 54.9922L63.6816 86.1934H31.4062L15 24.0352Z" fill="#DB00FF"/>
<path d="M169.053 62.6582H194.395L181.553 40.1484L169.053 62.6582ZM162.607 24.0352H200.01L233.945 86.1934H207.09L200.938 75.0605H162.168L156.016 86.1934H128.867L162.607 24.0352Z" fill="#DB00FF"/>
<path d="M339.756 86.6816L334.922 77.9414C332.839 79.4062 330.283 80.7409 327.256 81.9453C324.261 83.1172 321.071 84.1426 317.686 85.0215C314.333 85.8678 310.898 86.5352 307.383 87.0234C303.867 87.5117 300.579 87.7559 297.52 87.7559C289.674 87.7559 282.432 87.2188 275.791 86.1445C269.183 85.0378 263.389 83.3613 258.408 81.1152C253.46 78.8691 249.505 76.0534 246.543 72.668C243.581 69.2826 241.888 65.3112 241.465 60.7539C241.465 60.3633 241.449 59.9238 241.416 59.4355C241.383 58.9473 241.367 58.4753 241.367 58.0195C241.302 57.5638 241.27 57.1243 241.27 56.7012C241.27 56.2454 241.27 55.7734 241.27 55.2852C241.27 54.7643 241.286 54.2109 241.318 53.625C241.351 53.0391 241.367 52.4694 241.367 51.916V50.2559C241.66 46.2845 243.174 42.6387 245.908 39.3184C248.675 35.9655 252.549 33.0846 257.529 30.6758C262.51 28.2344 268.564 26.3301 275.693 24.9629C282.855 23.5957 291.009 22.9121 300.156 22.9121C306.862 22.9121 313.145 23.319 319.004 24.1328C324.896 24.9466 330.137 26.265 334.727 28.0879C339.316 29.8783 343.141 32.2057 346.201 35.0703C349.261 37.9023 351.312 41.3691 352.354 45.4707V45.373C352.451 45.5358 352.516 45.7962 352.549 46.1543C352.581 46.5124 352.63 46.8379 352.695 47.1309H318.32C318.158 46.7402 318.044 46.3984 317.979 46.1055C317.913 45.8125 317.816 45.5521 317.686 45.3242V45.4707C316.611 42.8991 314.561 40.8971 311.533 39.4648C308.506 38.0326 304.469 37.3164 299.424 37.3164C292.979 37.3164 287.314 38.3906 282.432 40.5391C277.581 42.6549 274.733 45.4056 273.887 48.791C273.04 52.1764 272.617 54.276 272.617 55.0898C272.617 55.9688 272.633 57.0918 272.666 58.459C272.699 59.8262 273.089 61.1283 273.838 62.3652C274.619 63.5697 275.645 64.8229 276.914 66.125C278.216 67.3945 280.251 68.6966 283.018 70.0312C285.785 71.3659 288.421 72.082 290.928 72.1797C293.434 72.2773 296.283 72.3262 299.473 72.3262C310.573 72.6191 317.441 69.6569 320.078 63.4395H313.633V58.5078H354.16C354.225 60.0052 354.258 61.6654 354.258 63.4883C354.258 65.3112 354.258 66.8411 354.258 68.0781C354.323 69.6406 354.372 71.2845 354.404 73.0098C354.469 74.735 354.518 76.4277 354.551 78.0879C354.583 79.748 354.6 81.3268 354.6 82.8242C354.6 84.3216 354.6 85.6074 354.6 86.6816H339.756Z" fill="#DB00FF"/>
<path d="M361.973 24.0352H399.229L421.445 56.5059L443.76 24.0352H480.332V86.1934H457.09V46.9355L431.943 86.1934H410.508L385.508 46.9355V86.1934H361.973V24.0352Z" fill="#DB00FF"/>
<path d="M487.656 24.0352H516.66V86.1934H487.656V24.0352Z" fill="#DB00FF"/>
<path d="M523.984 13H549.082L547.861 69.25H526.084L523.984 13ZM536.973 76.4277C535.117 76.4277 533.327 76.6881 531.602 77.209C529.876 77.6973 528.525 78.4134 527.549 79.3574C526.572 80.2689 526.084 81.2292 526.084 82.2383C526.084 83.2474 526.556 84.2077 527.5 85.1191C528.477 86.0306 529.827 86.7467 531.553 87.2676C533.278 87.7559 535.085 88 536.973 88C538.861 88 540.667 87.7559 542.393 87.2676C544.118 86.7467 545.452 86.0306 546.396 85.1191C547.373 84.2077 547.861 83.2474 547.861 82.2383C547.861 81.2292 547.357 80.2689 546.348 79.3574C545.371 78.4134 544.02 77.6973 542.295 77.209C540.57 76.6881 538.796 76.4277 536.973 76.4277Z" fill="#DB00FF"/>
<path d="M11 20.0352H35.1211L45.6191 60.8555L59.584 20.0352H81.0195L95.082 60.8555L105.58 20.0352H129.701L113.295 82.1934H81.0195L70.375 50.9922L59.6816 82.1934H27.4062L11 20.0352Z" fill="#0066FF"/>
<path d="M165.053 58.6582H190.395L177.553 36.1484L165.053 58.6582ZM158.607 20.0352H196.01L229.945 82.1934H203.09L196.938 71.0605H158.168L152.016 82.1934H124.867L158.607 20.0352Z" fill="#0066FF"/>
<path d="M335.756 82.6816L330.922 73.9414C328.839 75.4062 326.283 76.7409 323.256 77.9453C320.261 79.1172 317.071 80.1426 313.686 81.0215C310.333 81.8678 306.898 82.5352 303.383 83.0234C299.867 83.5117 296.579 83.7559 293.52 83.7559C285.674 83.7559 278.432 83.2188 271.791 82.1445C265.183 81.0378 259.389 79.3613 254.408 77.1152C249.46 74.8691 245.505 72.0534 242.543 68.668C239.581 65.2826 237.888 61.3112 237.465 56.7539C237.465 56.3633 237.449 55.9238 237.416 55.4355C237.383 54.9473 237.367 54.4753 237.367 54.0195C237.302 53.5638 237.27 53.1243 237.27 52.7012C237.27 52.2454 237.27 51.7734 237.27 51.2852C237.27 50.7643 237.286 50.2109 237.318 49.625C237.351 49.0391 237.367 48.4694 237.367 47.916V46.2559C237.66 42.2845 239.174 38.6387 241.908 35.3184C244.675 31.9655 248.549 29.0846 253.529 26.6758C258.51 24.2344 264.564 22.3301 271.693 20.9629C278.855 19.5957 287.009 18.9121 296.156 18.9121C302.862 18.9121 309.145 19.319 315.004 20.1328C320.896 20.9466 326.137 22.265 330.727 24.0879C335.316 25.8783 339.141 28.2057 342.201 31.0703C345.261 33.9023 347.312 37.3691 348.354 41.4707V41.373C348.451 41.5358 348.516 41.7962 348.549 42.1543C348.581 42.5124 348.63 42.8379 348.695 43.1309H314.32C314.158 42.7402 314.044 42.3984 313.979 42.1055C313.913 41.8125 313.816 41.5521 313.686 41.3242V41.4707C312.611 38.8991 310.561 36.8971 307.533 35.4648C304.506 34.0326 300.469 33.3164 295.424 33.3164C288.979 33.3164 283.314 34.3906 278.432 36.5391C273.581 38.6549 270.733 41.4056 269.887 44.791C269.04 48.1764 268.617 50.276 268.617 51.0898C268.617 51.9688 268.633 53.0918 268.666 54.459C268.699 55.8262 269.089 57.1283 269.838 58.3652C270.619 59.5697 271.645 60.8229 272.914 62.125C274.216 63.3945 276.251 64.6966 279.018 66.0312C281.785 67.3659 284.421 68.082 286.928 68.1797C289.434 68.2773 292.283 68.3262 295.473 68.3262C306.573 68.6191 313.441 65.6569 316.078 59.4395H309.633V54.5078H350.16C350.225 56.0052 350.258 57.6654 350.258 59.4883C350.258 61.3112 350.258 62.8411 350.258 64.0781C350.323 65.6406 350.372 67.2845 350.404 69.0098C350.469 70.735 350.518 72.4277 350.551 74.0879C350.583 75.748 350.6 77.3268 350.6 78.8242C350.6 80.3216 350.6 81.6074 350.6 82.6816H335.756Z" fill="#0066FF"/>
<path d="M357.973 20.0352H395.229L417.445 52.5059L439.76 20.0352H476.332V82.1934H453.09V42.9355L427.943 82.1934H406.508L381.508 42.9355V82.1934H357.973V20.0352Z" fill="#0066FF"/>
<path d="M483.656 20.0352H512.66V82.1934H483.656V20.0352Z" fill="#0066FF"/>
<path d="M519.984 9H545.082L543.861 65.25H522.084L519.984 9ZM532.973 72.4277C531.117 72.4277 529.327 72.6881 527.602 73.209C525.876 73.6973 524.525 74.4134 523.549 75.3574C522.572 76.2689 522.084 77.2292 522.084 78.2383C522.084 79.2474 522.556 80.2077 523.5 81.1191C524.477 82.0306 525.827 82.7467 527.553 83.2676C529.278 83.7559 531.085 84 532.973 84C534.861 84 536.667 83.7559 538.393 83.2676C540.118 82.7467 541.452 82.0306 542.396 81.1191C543.373 80.2077 543.861 79.2474 543.861 78.2383C543.861 77.2292 543.357 76.2689 542.348 75.3574C541.371 74.4134 540.02 73.6973 538.295 73.209C536.57 72.6881 534.796 72.4277 532.973 72.4277Z" fill="#0066FF"/>
<path d="M7 16.0352H31.1211L41.6191 56.8555L55.584 16.0352H77.0195L91.082 56.8555L101.58 16.0352H125.701L109.295 78.1934H77.0195L66.375 46.9922L55.6816 78.1934H23.4062L7 16.0352Z" fill="black"/>
<path d="M161.053 54.6582H186.395L173.553 32.1484L161.053 54.6582ZM154.607 16.0352H192.01L225.945 78.1934H199.09L192.938 67.0605H154.168L148.016 78.1934H120.867L154.607 16.0352Z" fill="black"/>
<path d="M331.756 78.6816L326.922 69.9414C324.839 71.4062 322.283 72.7409 319.256 73.9453C316.261 75.1172 313.071 76.1426 309.686 77.0215C306.333 77.8678 302.898 78.5352 299.383 79.0234C295.867 79.5117 292.579 79.7559 289.52 79.7559C281.674 79.7559 274.432 79.2188 267.791 78.1445C261.183 77.0378 255.389 75.3613 250.408 73.1152C245.46 70.8691 241.505 68.0534 238.543 64.668C235.581 61.2826 233.888 57.3112 233.465 52.7539C233.465 52.3633 233.449 51.9238 233.416 51.4355C233.383 50.9473 233.367 50.4753 233.367 50.0195C233.302 49.5638 233.27 49.1243 233.27 48.7012C233.27 48.2454 233.27 47.7734 233.27 47.2852C233.27 46.7643 233.286 46.2109 233.318 45.625C233.351 45.0391 233.367 44.4694 233.367 43.916V42.2559C233.66 38.2845 235.174 34.6387 237.908 31.3184C240.675 27.9655 244.549 25.0846 249.529 22.6758C254.51 20.2344 260.564 18.3301 267.693 16.9629C274.855 15.5957 283.009 14.9121 292.156 14.9121C298.862 14.9121 305.145 15.319 311.004 16.1328C316.896 16.9466 322.137 18.265 326.727 20.0879C331.316 21.8783 335.141 24.2057 338.201 27.0703C341.261 29.9023 343.312 33.3691 344.354 37.4707V37.373C344.451 37.5358 344.516 37.7962 344.549 38.1543C344.581 38.5124 344.63 38.8379 344.695 39.1309H310.32C310.158 38.7402 310.044 38.3984 309.979 38.1055C309.913 37.8125 309.816 37.5521 309.686 37.3242V37.4707C308.611 34.8991 306.561 32.8971 303.533 31.4648C300.506 30.0326 296.469 29.3164 291.424 29.3164C284.979 29.3164 279.314 30.3906 274.432 32.5391C269.581 34.6549 266.733 37.4056 265.887 40.791C265.04 44.1764 264.617 46.276 264.617 47.0898C264.617 47.9688 264.633 49.0918 264.666 50.459C264.699 51.8262 265.089 53.1283 265.838 54.3652C266.619 55.5697 267.645 56.8229 268.914 58.125C270.216 59.3945 272.251 60.6966 275.018 62.0312C277.785 63.3659 280.421 64.082 282.928 64.1797C285.434 64.2773 288.283 64.3262 291.473 64.3262C302.573 64.6191 309.441 61.6569 312.078 55.4395H305.633V50.5078H346.16C346.225 52.0052 346.258 53.6654 346.258 55.4883C346.258 57.3112 346.258 58.8411 346.258 60.0781C346.323 61.6406 346.372 63.2845 346.404 65.0098C346.469 66.735 346.518 68.4277 346.551 70.0879C346.583 71.748 346.6 73.3268 346.6 74.8242C346.6 76.3216 346.6 77.6074 346.6 78.6816H331.756Z" fill="black"/>
<path d="M353.973 16.0352H391.229L413.445 48.5059L435.76 16.0352H472.332V78.1934H449.09V38.9355L423.943 78.1934H402.508L377.508 38.9355V78.1934H353.973V16.0352Z" fill="black"/>
<path d="M479.656 16.0352H508.66V78.1934H479.656V16.0352Z" fill="black"/>
<path d="M515.984 5H541.082L539.861 61.25H518.084L515.984 5ZM528.973 68.4277C527.117 68.4277 525.327 68.6881 523.602 69.209C521.876 69.6973 520.525 70.4134 519.549 71.3574C518.572 72.2689 518.084 73.2292 518.084 74.2383C518.084 75.2474 518.556 76.2077 519.5 77.1191C520.477 78.0306 521.827 78.7467 523.553 79.2676C525.278 79.7559 527.085 80 528.973 80C530.861 80 532.667 79.7559 534.393 79.2676C536.118 78.7467 537.452 78.0306 538.396 77.1191C539.373 76.2077 539.861 75.2474 539.861 74.2383C539.861 73.2292 539.357 72.2689 538.348 71.3574C537.371 70.4134 536.02 69.6973 534.295 69.209C532.57 68.6881 530.796 68.4277 528.973 68.4277Z" fill="black"/>
<path d="M0 11.0352H24.1211L34.6191 51.8555L48.584 11.0352H70.0195L84.082 51.8555L94.5801 11.0352H118.701L102.295 73.1934H70.0195L59.375 41.9922L48.6816 73.1934H16.4062L0 11.0352Z" fill="white"/>
<path d="M154.053 49.6582H179.395L166.553 27.1484L154.053 49.6582ZM147.607 11.0352H185.01L218.945 73.1934H192.09L185.938 62.0605H147.168L141.016 73.1934H113.867L147.607 11.0352Z" fill="white"/>
<path d="M324.756 73.6816L319.922 64.9414C317.839 66.4062 315.283 67.7409 312.256 68.9453C309.261 70.1172 306.071 71.1426 302.686 72.0215C299.333 72.8678 295.898 73.5352 292.383 74.0234C288.867 74.5117 285.579 74.7559 282.52 74.7559C274.674 74.7559 267.432 74.2188 260.791 73.1445C254.183 72.0378 248.389 70.3613 243.408 68.1152C238.46 65.8691 234.505 63.0534 231.543 59.668C228.581 56.2826 226.888 52.3112 226.465 47.7539C226.465 47.3633 226.449 46.9238 226.416 46.4355C226.383 45.9473 226.367 45.4753 226.367 45.0195C226.302 44.5638 226.27 44.1243 226.27 43.7012C226.27 43.2454 226.27 42.7734 226.27 42.2852C226.27 41.7643 226.286 41.2109 226.318 40.625C226.351 40.0391 226.367 39.4694 226.367 38.916V37.2559C226.66 33.2845 228.174 29.6387 230.908 26.3184C233.675 22.9655 237.549 20.0846 242.529 17.6758C247.51 15.2344 253.564 13.3301 260.693 11.9629C267.855 10.5957 276.009 9.91211 285.156 9.91211C291.862 9.91211 298.145 10.319 304.004 11.1328C309.896 11.9466 315.137 13.265 319.727 15.0879C324.316 16.8783 328.141 19.2057 331.201 22.0703C334.261 24.9023 336.312 28.3691 337.354 32.4707V32.373C337.451 32.5358 337.516 32.7962 337.549 33.1543C337.581 33.5124 337.63 33.8379 337.695 34.1309H303.32C303.158 33.7402 303.044 33.3984 302.979 33.1055C302.913 32.8125 302.816 32.5521 302.686 32.3242V32.4707C301.611 29.8991 299.561 27.8971 296.533 26.4648C293.506 25.0326 289.469 24.3164 284.424 24.3164C277.979 24.3164 272.314 25.3906 267.432 27.5391C262.581 29.6549 259.733 32.4056 258.887 35.791C258.04 39.1764 257.617 41.276 257.617 42.0898C257.617 42.9688 257.633 44.0918 257.666 45.459C257.699 46.8262 258.089 48.1283 258.838 49.3652C259.619 50.5697 260.645 51.8229 261.914 53.125C263.216 54.3945 265.251 55.6966 268.018 57.0312C270.785 58.3659 273.421 59.082 275.928 59.1797C278.434 59.2773 281.283 59.3262 284.473 59.3262C295.573 59.6191 302.441 56.6569 305.078 50.4395H298.633V45.5078H339.16C339.225 47.0052 339.258 48.6654 339.258 50.4883C339.258 52.3112 339.258 53.8411 339.258 55.0781C339.323 56.6406 339.372 58.2845 339.404 60.0098C339.469 61.735 339.518 63.4277 339.551 65.0879C339.583 66.748 339.6 68.3268 339.6 69.8242C339.6 71.3216 339.6 72.6074 339.6 73.6816H324.756Z" fill="white"/>
<path d="M346.973 11.0352H384.229L406.445 43.5059L428.76 11.0352H465.332V73.1934H442.09V33.9355L416.943 73.1934H395.508L370.508 33.9355V73.1934H346.973V11.0352Z" fill="white"/>
<path d="M472.656 11.0352H501.66V73.1934H472.656V11.0352Z" fill="white"/>
<path d="M508.984 0H534.082L532.861 56.25H511.084L508.984 0ZM521.973 63.4277C520.117 63.4277 518.327 63.6882 516.602 64.209C514.876 64.6973 513.525 65.4134 512.549 66.3574C511.572 67.2689 511.084 68.2292 511.084 69.2383C511.084 70.2474 511.556 71.2077 512.5 72.1191C513.477 73.0306 514.827 73.7467 516.553 74.2676C518.278 74.7559 520.085 75 521.973 75C523.861 75 525.667 74.7559 527.393 74.2676C529.118 73.7467 530.452 73.0306 531.396 72.1191C532.373 71.2077 532.861 70.2474 532.861 69.2383C532.861 68.2292 532.357 67.2689 531.348 66.3574C530.371 65.4134 529.02 64.6973 527.295 64.209C525.57 63.6882 523.796 63.4277 521.973 63.4277Z" fill="white"/>
</svg>
